<?xml version="1.0" standalone="no"?>
<!DOCTYPE svg PUBLIC "-//W3C//DTD SVG 20010904//EN"
 "http://www.w3.org/TR/2001/REC-SVG-20010904/DTD/svg10.dtd">
<svg version="1.0" xmlns="http://www.w3.org/2000/svg"
 width="579.000000pt" height="768.000000pt" viewBox="0 0 579.000000 768.000000"
 preserveAspectRatio="xMidYMid meet">
<metadata>
Created by potrace 1.11, written by Peter Selinger 2001-2013
</metadata>
<g transform="translate(0.000000,768.000000) scale(0.100000,-0.100000)"
fill="#000000" stroke="none">
<path d="M2310 7363 c-13 -3 -30 -14 -38 -24 -15 -22 -52 -26 -52 -5 0 9 -7
12 -20 9 -12 -3 -20 -14 -20 -27 1 -19 2 -19 13 -5 10 14 14 14 25 3 9 -10 18
-11 32 -4 24 13 77 13 85 0 3 -5 0 -7 -8 -4 -8 3 -22 -2 -31 -11 -11 -11 -16
-12 -16 -4 0 7 -3 9 -7 5 -5 -4 1 -15 12 -23 19 -15 19 -15 -7 -11 -16 3 -28
2 -28 -3 0 -4 -3 -14 -6 -23 -4 -11 5 -18 35 -27 37 -11 56 -29 31 -29 -5 0
-6 -8 -3 -17 5 -12 2 -15 -10 -10 -9 3 -17 2 -17 -3 0 -6 -14 -10 -30 -10 -27
0 -29 -2 -21 -19 8 -15 7 -20 -7 -26 -15 -6 -15 -8 7 -26 18 -14 19 -19 7 -19
-9 0 -16 -8 -16 -19 0 -11 -9 -23 -20 -26 -23 -7 -25 -16 -7 -34 10 -10 8 -15
-7 -27 -19 -14 -19 -14 5 -15 127 -6 162 -10 176 -17 14 -8 13 -11 -8 -23 -13
-7 -35 -12 -49 -11 -18 1 -31 -8 -45 -30 -11 -18 -35 -37 -55 -43 l-35 -12 28
-13 c15 -7 27 -17 27 -22 0 -5 4 -6 10 -3 13 8 0 -28 -14 -37 -5 -4 -22 -4
-37 -1 -16 3 -37 -1 -51 -11 -14 -9 -46 -17 -71 -18 -26 -1 -47 -4 -47 -5 0
-7 58 -31 64 -26 3 4 6 -1 6 -10 0 -20 -17 -25 -105 -32 -38 -3 -95 -11 -125
-17 -75 -14 -162 -4 -205 25 -19 13 -32 27 -29 30 4 4 1 14 -6 22 -11 14 -8
21 21 49 19 18 50 36 69 40 19 3 49 15 65 27 30 20 30 20 5 18 -14 -1 -37 1
-52 5 -22 7 -26 11 -18 26 5 9 23 23 41 30 25 11 28 15 15 22 -19 11 -21 28
-3 28 8 0 22 10 33 21 10 12 29 25 42 30 12 5 22 15 22 24 0 8 5 15 11 15 8 0
8 5 -1 15 -9 11 -10 15 -1 15 9 0 8 4 -2 14 -20 20 -38 22 -64 8 -19 -10 -23
-10 -23 0 0 9 -3 9 -10 -2 -5 -8 -12 -12 -15 -9 -14 15 11 37 80 68 40 19 81
43 89 53 9 10 23 18 31 18 9 0 13 5 10 10 -5 9 23 15 48 11 12 -2 83 36 101
54 9 9 25 17 36 18 14 1 20 8 20 24 0 27 -12 30 -30 8 -8 -10 -17 -12 -24 -6
-7 5 -33 -2 -71 -19 -33 -15 -63 -26 -66 -24 -4 2 -20 -3 -35 -11 -16 -8 -34
-15 -41 -15 -6 0 -13 -4 -15 -8 -1 -4 -23 -18 -48 -30 -25 -12 -72 -40 -105
-61 -33 -22 -84 -54 -114 -71 -60 -35 -162 -135 -228 -222 -63 -83 -145 -249
-186 -378 -21 -63 -37 -125 -37 -137 0 -12 -5 -34 -11 -50 -6 -15 -13 -50 -16
-78 -3 -27 -15 -81 -26 -120 -11 -38 -20 -95 -21 -125 0 -30 -4 -60 -9 -67 -4
-6 -10 -83 -13 -170 -4 -121 -1 -177 11 -238 8 -44 18 -118 21 -165 4 -47 15
-110 25 -140 11 -30 19 -75 19 -101 0 -41 5 -51 50 -98 45 -47 74 -107 84
-177 1 -7 5 -17 10 -21 4 -4 5 63 3 150 -3 86 -1 176 5 199 5 24 11 61 13 83
2 22 9 81 15 130 6 50 12 102 13 118 1 15 5 27 10 27 5 0 7 11 5 25 -3 14 -2
25 2 25 13 0 18 51 10 81 -5 16 -5 29 -1 29 4 0 7 24 8 53 1 28 8 72 17 97 8
25 18 61 21 80 9 56 56 139 97 171 21 17 62 39 92 50 30 10 66 30 81 43 14 13
37 27 51 30 14 4 44 19 66 34 23 15 48 32 57 37 9 6 19 15 23 20 4 6 8 6 8 2
0 -4 26 10 58 32 49 33 63 49 88 104 29 66 62 95 82 75 7 -7 19 0 37 20 22 25
34 30 71 30 50 0 56 -12 24 -48 -11 -13 -20 -27 -20 -32 0 -13 24 -9 46 7 43
32 86 8 49 -29 -8 -8 -15 -23 -15 -34 0 -28 45 -17 88 22 44 40 67 41 67 2 0
-38 14 -42 47 -11 15 14 30 25 33 25 12 0 66 67 77 98 7 17 16 32 20 32 4 0 8
9 8 20 0 11 6 20 14 20 15 0 20 11 31 70 13 73 25 90 61 90 30 0 40 8 32 25
-2 2 8 12 21 21 17 12 42 17 85 16 55 -2 59 -1 42 12 -24 19 -11 38 22 35 33
-4 55 9 48 27 -3 9 1 14 12 15 14 0 14 2 2 6 -8 3 -18 11 -22 17 -5 7 -8 6 -8
-4 -1 -13 -2 -13 -9 0 -10 17 -9 50 3 68 4 6 4 17 1 22 -3 6 4 10 17 11 l23 0
-23 11 c-24 12 -24 35 -1 30 15 -4 102 37 107 51 2 4 12 7 23 7 10 0 19 4 19
10 0 16 56 4 88 -18 16 -12 32 -19 36 -15 3 3 6 -3 6 -15 0 -11 6 -23 13 -25
9 -4 9 -6 -1 -6 -8 -1 -10 -6 -6 -13 6 -10 4 -10 -7 0 -16 14 -43 16 -34 2 3
-5 2 -10 -3 -10 -5 0 -12 9 -15 20 -3 11 -10 20 -16 20 -17 0 -13 -13 12 -40
13 -14 21 -32 19 -39 -3 -9 0 -11 8 -6 8 5 11 3 8 -6 -6 -16 -99 -20 -110 -4
-4 5 -10 6 -14 3 -8 -8 20 -38 35 -38 6 0 11 -4 11 -10 0 -13 -46 -13 -72 1
-15 8 -27 8 -44 -2 -31 -16 -30 -24 6 -39 16 -7 27 -16 25 -21 -3 -4 8 -18 25
-30 17 -13 29 -28 27 -33 -2 -6 6 -19 17 -28 21 -18 20 -18 -16 -16 -27 2 -42
-3 -53 -17 -20 -28 -19 -40 8 -58 l22 -15 -30 -11 c-16 -6 -37 -15 -45 -19 -8
-5 -26 -4 -42 2 -34 13 -49 0 -37 -32 5 -14 20 -25 39 -28 22 -5 33 -15 42
-40 7 -19 18 -34 25 -34 9 0 11 -8 7 -25 -7 -30 10 -55 38 -55 11 0 40 -20 65
-45 26 -24 50 -42 55 -39 4 3 8 0 8 -5 0 -6 3 -10 8 -9 12 4 72 -24 72 -33 0
-5 7 -9 15 -9 8 0 15 -4 15 -10 0 -5 4 -10 9 -10 5 0 22 -5 38 -12 15 -6 34
-10 41 -9 6 1 12 -2 12 -7 0 -6 17 -13 38 -17 20 -4 43 -11 49 -17 7 -6 24 -8
38 -6 14 3 25 1 25 -3 0 -5 7 -9 16 -9 8 0 12 -4 9 -10 -3 -5 1 -10 9 -10 9 0
16 -4 16 -10 0 -5 7 -10 15 -10 8 0 15 -5 15 -10 0 -17 52 -33 60 -19 10 15
18 -1 16 -31 -1 -14 1 -27 5 -30 13 -9 17 -69 6 -74 -9 -3 -8 -7 2 -14 7 -5
15 -36 18 -73 3 -35 11 -67 17 -71 6 -5 7 -8 1 -8 -7 0 -7 -3 0 -8 12 -9 30
-40 68 -116 16 -33 46 -75 67 -94 23 -20 37 -39 33 -48 -3 -8 -1 -14 4 -14 25
0 57 -100 78 -240 4 -24 8 -47 11 -51 2 -3 6 -38 9 -78 5 -74 30 -147 53 -156
7 -2 21 4 31 14 13 13 24 15 39 10 13 -5 22 -4 22 1 0 6 -6 10 -14 10 -7 0
-16 9 -19 20 -4 14 0 20 11 20 10 0 13 3 6 8 -12 8 -14 52 -2 52 4 0 8 10 8
21 0 38 113 131 140 114 4 -2 20 16 36 40 15 25 31 45 35 45 4 0 5 9 2 20 -3
11 1 30 10 43 11 17 14 45 12 107 -2 47 1 101 6 120 4 19 9 69 10 110 1 42 7
78 13 82 8 5 7 13 -2 29 -8 12 -12 43 -11 72 1 29 -3 68 -9 87 -6 19 -13 51
-15 70 -8 56 -27 143 -37 165 -5 11 -16 45 -25 75 -18 62 -84 200 -97 200 -4
0 -8 6 -8 13 0 8 -12 32 -28 53 -15 21 -45 68 -66 104 -21 36 -47 74 -58 85
-10 11 -35 41 -55 68 -19 26 -42 47 -49 47 -8 0 -14 4 -14 8 0 5 -12 15 -27
23 -15 8 -50 29 -78 47 -27 18 -60 35 -72 38 -12 3 -24 12 -27 20 -3 8 -12 14
-21 14 -9 0 -27 11 -41 25 -14 14 -31 25 -38 25 -16 0 -72 27 -108 52 -14 10
-31 18 -37 18 -6 0 -30 9 -54 19 -44 20 -107 35 -107 25 0 -3 7 -13 16 -21 12
-13 13 -18 3 -24 -8 -4 -16 -5 -19 -1 -3 4 -17 15 -32 25 -25 15 -27 15 -21 1
4 -12 2 -15 -8 -12 -8 3 -13 11 -12 17 2 6 -3 11 -11 11 -17 0 -56 59 -56 84
0 31 -233 3 -285 -35 -22 -16 -52 -15 -100 4 -108 41 -265 69 -405 72 -74 2
-146 1 -160 -2z m-563 -859 c49 -6 66 -24 22 -24 -10 0 -19 -5 -19 -10 0 -6
-16 -18 -35 -27 -19 -9 -35 -21 -35 -26 0 -5 -6 -4 -14 2 -11 9 -20 7 -40 -14
-14 -14 -25 -29 -25 -32 0 -4 -5 -9 -12 -12 -6 -2 -9 1 -5 7 3 6 2 13 -4 17
-15 9 -12 25 5 25 8 0 15 4 15 9 0 6 -21 11 -47 13 -45 3 -48 5 -45 28 1 14
10 31 19 38 18 13 132 16 220 6z"/>
<path d="M3230 5669 c-14 -6 -43 -8 -64 -6 -26 4 -53 -1 -80 -13 -47 -21 -72
-29 -112 -35 -115 -18 -220 -61 -277 -114 -37 -34 -39 -38 -32 -81 3 -25 6
-86 6 -137 0 -77 2 -91 14 -87 8 4 15 1 15 -5 0 -6 27 -38 59 -71 58 -58 86
-75 75 -45 -4 9 0 15 10 15 11 0 16 9 16 30 0 28 3 30 35 30 34 0 47 13 23 24
-9 3 -6 11 11 25 12 12 27 19 31 16 5 -3 11 3 14 13 7 21 88 70 93 56 33 -82
68 -112 143 -120 30 -3 58 -12 63 -19 6 -12 15 -12 54 0 26 8 49 12 52 10 2
-3 -1 -5 -8 -5 -8 0 -11 -7 -7 -15 4 -11 -3 -19 -22 -26 -15 -6 -35 -15 -44
-20 -10 -5 -31 -9 -47 -9 -16 0 -36 -7 -44 -15 -11 -10 -17 -11 -19 -3 -3 7
-33 12 -79 14 -41 1 -94 5 -119 9 -44 7 -44 7 -23 -9 13 -10 30 -16 39 -14 9
2 19 -3 22 -11 3 -9 0 -11 -9 -7 -8 4 -5 0 5 -8 13 -11 23 -13 31 -6 9 8 14 5
17 -8 6 -21 68 -53 112 -58 17 -1 31 -3 31 -4 0 -1 17 -4 38 -5 20 -2 37 1 37
6 0 6 4 8 9 4 5 -3 12 -1 16 5 4 6 11 7 17 4 7 -5 9 2 4 20 -5 22 -3 26 14 26
11 0 20 5 20 10 0 19 38 52 51 44 9 -5 11 -1 6 15 -4 16 -2 21 8 17 8 -3 16 0
19 7 5 9 7 9 12 -1 9 -19 24 -4 24 24 0 22 2 23 20 12 15 -10 22 -10 31 -1 16
16 20 104 6 122 -10 11 -8 13 11 7 16 -6 22 -3 22 8 0 9 -3 15 -7 15 -28 -5
-42 22 -44 82 0 9 -6 16 -14 16 -7 0 -11 -7 -7 -15 3 -10 1 -13 -6 -8 -7 4
-12 14 -12 21 0 8 -9 19 -21 25 -11 7 -18 14 -15 17 5 6 -84 68 -108 76 -7 2
-6 10 3 21 17 20 63 17 122 -8 20 -8 39 -12 43 -9 3 4 6 0 6 -7 0 -7 3 -11 6
-7 4 3 22 -5 40 -20 19 -14 34 -22 34 -18 0 4 7 2 15 -5 12 -10 18 -9 31 5 20
20 10 44 -24 60 -12 5 -22 14 -22 19 0 10 -36 45 -77 73 -27 20 -66 32 -110
36 -12 1 -24 5 -28 9 -4 4 -27 4 -52 1 -32 -4 -44 -2 -39 6 9 14 -29 14 -64 0z
m70 -202 c56 -19 91 -46 102 -78 5 -16 15 -29 21 -29 7 0 6 -5 -3 -11 -11 -8
-12 -12 -2 -16 6 -2 12 -9 12 -14 0 -12 -67 -12 -74 0 -6 9 -60 17 -173 28
-43 4 -76 0 -109 -11 -52 -18 -92 -20 -112 -7 -10 6 -5 16 19 39 18 18 37 32
42 32 6 0 15 6 21 14 6 8 34 26 61 40 56 29 136 34 195 13z"/>
<path d="M2060 5543 c-108 -36 -131 -42 -145 -37 -19 8 -136 -22 -189 -48
-110 -53 -119 -61 -148 -138 -21 -53 -21 -60 -7 -97 l11 -28 29 35 c16 19 29
39 29 45 1 19 48 64 85 79 21 9 39 16 41 16 13 0 -1 -28 -34 -68 -55 -68 -81
-122 -75 -154 4 -19 12 -28 24 -28 12 0 21 10 25 28 14 56 57 132 92 162 47
40 122 62 184 54 26 -4 53 -13 59 -20 6 -8 17 -14 24 -14 21 0 33 -23 25 -46
-6 -16 -26 -25 -82 -39 -104 -25 -117 -31 -124 -59 -12 -49 77 -146 134 -146
32 0 99 58 116 100 9 22 20 40 25 40 20 0 33 -31 27 -65 -6 -32 -5 -35 18 -35
14 0 27 4 31 10 3 5 11 7 19 4 7 -3 25 0 40 6 27 10 27 10 10 39 -22 38 -13
67 16 49 11 -7 20 -20 20 -30 0 -21 16 -32 22 -15 10 29 8 167 -2 187 -10 18
-8 26 9 44 27 28 26 44 -2 85 -25 37 -99 71 -157 71 -19 0 -44 7 -54 15 -24
18 -38 18 -96 -2z"/>
<path d="M4465 5259 c-17 -4 -41 -22 -53 -39 -13 -16 -31 -30 -42 -30 -11 0
-20 -5 -20 -11 0 -6 -16 -26 -35 -45 -19 -18 -35 -37 -35 -40 0 -4 -11 -21
-24 -38 -36 -47 -47 -129 -26 -191 40 -118 46 -150 38 -200 -4 -27 -12 -51
-18 -53 -5 -2 -10 -8 -10 -13 0 -14 28 -11 37 4 4 8 21 22 36 32 24 15 28 24
26 54 -4 53 9 91 29 85 14 -5 13 -3 -2 10 -14 11 -16 19 -9 28 6 7 8 27 6 43
-3 17 -5 42 -4 57 0 16 -10 39 -24 54 -14 15 -25 36 -25 47 0 16 6 19 35 15
19 -2 37 1 39 7 2 5 5 0 5 -13 1 -13 5 -20 11 -17 16 10 40 -14 40 -41 0 -12
5 -26 11 -29 6 -4 8 -13 5 -21 -3 -7 2 -30 10 -50 8 -20 13 -43 10 -50 -3 -8
0 -14 6 -14 7 0 6 -5 -2 -15 -12 -15 -23 -73 -23 -127 0 -16 -4 -28 -8 -28 -5
0 -9 -4 -9 -10 0 -19 21 -10 30 14 5 13 14 27 19 31 6 3 11 17 11 31 0 13 5
24 10 24 6 0 10 7 10 15 0 8 -4 15 -10 15 -14 0 -12 33 3 49 10 11 10 13 0 7
-9 -5 -13 2 -13 23 0 17 5 31 10 31 6 0 10 9 10 21 0 11 5 17 10 14 6 -3 10
-2 10 4 0 5 -5 13 -11 16 -7 5 -4 14 7 26 9 10 15 19 12 19 -3 0 -1 18 6 39
14 49 5 195 -15 236 -16 33 -30 38 -74 24z"/>
<path d="M4200 4541 c0 -7 -5 -9 -11 -6 -6 4 -9 1 -8 -6 4 -20 -41 -149 -52
-149 -11 0 -2 -59 12 -77 6 -6 30 -21 54 -33 41 -20 45 -20 84 -4 49 19 52 38
9 50 -27 8 -34 16 -40 48 -5 22 -12 44 -17 50 -5 6 -12 38 -15 71 -6 52 -16
89 -16 56z"/>
<path d="M3887 4478 c5 -36 5 -36 -31 -35 -36 1 -47 11 -23 20 7 4 8 6 1 6 -6
1 -17 -6 -24 -14 -10 -12 -9 -16 4 -21 12 -5 13 -9 3 -18 -6 -7 -16 -14 -22
-15 -5 -1 -13 -11 -17 -22 -4 -11 -12 -17 -18 -14 -14 9 -12 -8 3 -24 9 -11 9
-12 0 -7 -7 4 -22 2 -33 -4 -16 -9 -19 -15 -10 -25 8 -9 8 -15 0 -20 -6 -3 -8
-11 -5 -16 4 -5 -1 -16 -9 -25 -9 -9 -13 -20 -10 -26 4 -6 1 -14 -7 -18 -11
-7 -9 -17 9 -53 25 -50 30 -78 6 -34 -19 35 -28 30 -14 -7 7 -20 7 -25 -2 -20
-8 5 -9 2 -5 -9 3 -9 0 -23 -9 -31 -9 -10 -11 -17 -3 -21 7 -5 3 -16 -12 -31
-19 -20 -20 -24 -6 -24 11 0 17 -8 17 -22 0 -19 -2 -20 -10 -8 -6 10 -10 11
-10 3 0 -7 -7 -13 -15 -13 -17 0 -19 -9 -6 -29 8 -12 12 -12 25 -2 11 10 16
10 16 2 0 -6 -7 -14 -15 -17 -8 -4 -15 -13 -15 -21 0 -8 -5 -11 -12 -7 -8 5
-9 0 -6 -14 8 -28 -24 -30 -50 -4 -17 17 -20 17 -30 3 -9 -14 -11 -13 -11 7
-1 13 -5 20 -11 17 -5 -3 -10 -3 -10 2 0 4 -14 9 -30 10 -29 2 -117 50 -186
100 -17 13 -34 20 -39 15 -5 -4 -5 -1 -1 6 4 6 1 19 -8 27 -17 17 -46 20 -46
5 0 -18 32 -60 41 -54 5 3 6 -2 3 -11 -6 -14 -9 -14 -28 2 -27 23 -36 35 -30
44 6 11 -23 31 -43 29 -33 -4 -43 0 -43 15 0 8 5 15 10 15 6 0 10 5 10 10 0
14 -46 32 -89 35 -58 4 -75 73 -47 197 13 57 13 85 0 103 -13 18 -14 18 -27 1
-14 -19 -40 -21 -206 -13 -71 4 -132 -18 -151 -53 -6 -11 -20 -20 -31 -20 -11
0 -22 -7 -25 -15 -7 -17 -25 -15 -99 10 -27 10 -60 17 -72 17 -31 1 -56 -28
-49 -55 7 -25 65 -91 90 -100 14 -6 12 -13 -14 -54 -17 -26 -30 -52 -30 -59 0
-7 -13 -22 -30 -34 -16 -12 -30 -30 -30 -41 0 -20 -16 -26 -22 -8 -6 17 -38
-2 -44 -27 -3 -13 -12 -28 -20 -35 -8 -6 -14 -21 -14 -33 0 -21 -43 -48 -81
-50 -9 -1 -30 -16 -47 -34 -25 -26 -34 -49 -43 -100 -6 -37 -18 -75 -26 -84
-8 -9 -12 -21 -9 -26 8 -14 -39 -61 -79 -78 -29 -12 -33 -17 -26 -36 11 -30
31 -35 38 -9 4 15 9 19 17 11 7 -5 22 -8 34 -5 12 2 22 1 22 -4 0 -4 12 -7 28
-6 15 0 26 6 24 13 -1 7 2 12 8 12 5 0 10 -6 10 -12 0 -7 7 -22 16 -33 12 -17
16 -18 24 -5 14 23 22 6 11 -24 -6 -14 -7 -26 -2 -26 5 0 11 6 14 13 2 6 8 9
11 5 4 -3 -2 -16 -14 -28 -21 -21 -21 -22 -3 -35 27 -21 31 -19 38 27 4 23 14
48 22 56 7 8 11 23 8 33 -4 11 -2 19 4 19 6 0 11 -12 11 -26 0 -14 4 -23 10
-19 6 3 10 15 10 26 0 10 5 19 11 19 6 0 8 9 4 20 -4 12 -1 27 5 35 10 12 9
15 -4 15 -9 0 -16 5 -16 10 0 6 3 10 8 10 4 0 16 14 27 30 11 16 25 30 32 30
6 0 18 6 25 13 28 29 85 44 167 46 46 1 96 8 110 15 14 8 67 18 116 24 50 7
99 14 110 17 11 3 28 0 39 -8 18 -13 18 -15 -10 -56 -22 -34 -33 -42 -51 -38
-15 3 -24 -1 -28 -14 -5 -15 -11 -16 -31 -9 -17 7 -24 6 -24 -3 0 -18 -57 -23
-152 -14 -46 4 -58 3 -58 -8 0 -9 -6 -12 -15 -9 -9 4 -19 -3 -26 -20 -7 -14
-17 -26 -23 -26 -19 0 -16 -50 3 -51 41 -4 96 5 220 38 73 19 154 37 180 39
25 2 92 14 149 26 91 20 101 23 87 37 -13 13 -16 13 -30 -4 -12 -17 -14 -18
-15 -3 0 29 29 50 61 43 21 -5 31 -2 35 9 3 9 11 16 16 16 6 0 8 -7 4 -15 -5
-15 8 -19 46 -16 9 1 19 -3 23 -10 6 -8 10 -7 16 2 7 11 9 10 9 -3 0 -10 4
-18 9 -18 5 0 8 -8 7 -17 -2 -10 2 -21 8 -25 8 -5 7 -8 -1 -8 -7 0 -13 -7 -13
-16 0 -8 4 -12 10 -9 5 3 7 0 4 -9 -4 -10 19 -38 66 -83 63 -60 160 -188 160
-210 0 -13 57 -73 69 -73 16 0 46 52 64 112 10 31 37 98 61 147 40 85 42 94
35 146 -4 31 -6 144 -4 251 3 168 6 198 22 222 10 15 26 44 36 65 11 25 23 37
37 37 11 0 20 5 20 10 0 6 11 10 24 10 25 0 41 -30 66 -125 13 -53 27 -74 38
-58 4 7 7 -9 6 -37 -2 -27 1 -52 6 -55 4 -3 11 -23 15 -45 9 -52 21 -51 30 1
4 23 14 57 21 75 8 18 14 50 14 69 l0 36 -50 -5 c-38 -4 -50 -2 -50 8 0 8 8
17 17 20 12 5 13 10 5 18 -6 6 -8 17 -5 24 3 8 1 14 -4 14 -6 0 -6 14 1 35 8
26 12 31 17 17 4 -12 7 -8 11 14 3 23 1 31 -9 27 -7 -3 -19 2 -28 10 -19 19
-19 28 -1 21 8 -3 17 -1 21 5 3 6 -2 11 -12 11 -15 0 -16 2 -3 10 13 8 13 11
1 19 -9 6 -12 19 -8 40 5 25 4 29 -11 25 -13 -5 -14 -4 -3 4 7 5 10 15 6 22
-6 9 -3 9 14 1 11 -7 21 -17 21 -23 0 -6 3 -9 6 -5 3 3 -1 15 -9 27 -8 12 -12
31 -9 42 4 17 1 19 -16 14 -15 -5 -22 -2 -25 11 -4 17 -5 17 -6 1 0 -10 -6
-18 -12 -18 -5 0 -7 -4 -4 -10 3 -5 1 -10 -4 -10 -13 0 -13 2 -1 34 8 22 7 26
-10 26 -10 0 -21 8 -24 18 -2 9 -2 1 1 -20z"/>
<path d="M4054 3466 c-3 -14 -10 -26 -15 -26 -5 0 -6 -7 -3 -15 4 -9 -1 -18
-11 -21 -9 -4 -12 -9 -7 -13 12 -7 -7 -91 -24 -106 -6 -5 -14 -24 -17 -42 -5
-25 -2 -33 11 -36 16 -4 16 -5 0 -6 -11 -1 -15 -6 -12 -16 4 -8 2 -15 -4 -15
-6 0 -8 -8 -5 -19 3 -11 -2 -21 -11 -24 -9 -4 -16 -16 -16 -27 0 -11 -4 -20
-10 -20 -5 0 -7 -7 -4 -15 4 -8 2 -15 -4 -15 -5 0 -7 -11 -4 -25 3 -20 0 -25
-18 -25 -18 0 -20 -4 -14 -22 4 -13 14 -29 23 -35 15 -12 14 -13 -1 -7 -18 6
-43 -28 -30 -41 4 -4 -3 -2 -15 6 -12 7 -24 20 -27 29 -3 12 -4 12 -5 -2 0
-10 9 -26 21 -38 12 -11 17 -20 10 -20 -6 0 -9 -7 -6 -15 5 -12 1 -12 -28 2
-18 9 -42 23 -53 32 -13 10 -16 10 -7 1 6 -8 12 -23 13 -34 0 -12 3 -16 5 -10
5 13 44 7 44 -6 0 -4 -11 -7 -24 -7 -13 0 -32 -9 -43 -20 -21 -21 -28 -73 -11
-73 6 0 7 11 4 25 -4 14 -2 25 4 25 5 0 10 -6 11 -12 0 -7 2 -35 4 -63 3 -44
2 -47 -8 -23 -6 15 -17 30 -24 33 -8 2 -11 1 -8 -5 3 -5 2 -22 -1 -37 l-7 -28
-9 30 c-4 17 -5 37 -3 46 3 9 -1 19 -9 22 -10 4 -12 0 -8 -15 4 -18 2 -20 -14
-15 -18 7 -18 7 0 -8 13 -10 15 -15 6 -15 -10 0 -9 -3 3 -12 10 -7 20 -31 22
-53 3 -22 13 -46 23 -53 15 -11 15 -14 2 -22 -12 -7 -17 -3 -23 20 -4 16 -12
32 -19 36 -8 5 -9 -1 -3 -22 4 -16 9 -52 10 -81 2 -28 6 -57 11 -64 5 -8 3
-10 -7 -4 -11 6 -12 5 -1 -6 19 -21 15 -24 -30 -26 -23 -1 -51 -6 -63 -11 -11
-6 -63 -30 -115 -53 -52 -24 -111 -54 -130 -67 -19 -13 -53 -32 -75 -43 -22
-11 -56 -29 -75 -41 -19 -12 -87 -48 -150 -80 -65 -34 -136 -79 -162 -104 -26
-24 -51 -44 -54 -44 -6 0 -46 -33 -112 -92 -12 -11 -25 -18 -28 -15 -3 3 -10
39 -14 79 -5 40 -18 102 -29 138 -12 36 -21 73 -21 83 0 9 -4 17 -9 17 -5 0
-11 14 -15 32 -3 17 -14 41 -24 51 -12 15 -14 21 -4 24 6 3 12 9 12 14 0 4 -6
6 -13 3 -13 -5 -16 9 -22 131 -2 28 -6 89 -10 136 -10 113 -4 135 41 154 30
12 39 13 55 1 10 -7 16 -15 13 -19 -3 -3 6 -13 19 -22 23 -15 49 -54 27 -40
-6 3 -10 1 -10 -4 0 -6 7 -11 15 -11 8 0 15 -9 15 -19 0 -11 5 -23 10 -26 6
-3 10 -11 10 -16 0 -6 -5 -7 -12 -3 -8 5 -9 2 -5 -9 4 -12 1 -17 -11 -17 -21
0 -42 -43 -35 -70 3 -11 0 -20 -6 -20 -12 0 -15 -29 -5 -54 3 -9 10 -13 15
-10 5 3 6 -3 2 -12 -5 -13 -3 -16 10 -11 19 7 24 -17 7 -28 -5 -3 -9 -14 -9
-23 1 -15 2 -15 6 -1 4 16 32 29 63 28 8 0 2 -6 -15 -13 -27 -12 -24 -13 41
-8 l71 4 -5 -32 c-4 -26 -2 -31 9 -24 7 4 22 9 31 9 23 2 37 16 21 22 -20 7
-15 23 11 44 l24 19 -20 40 c-15 30 -17 44 -9 53 14 18 15 60 3 127 -11 57 -3
170 20 287 9 48 9 68 0 85 -22 41 -30 142 -15 189 18 61 17 63 -20 40 -18 -11
-47 -22 -64 -25 -28 -5 -34 -2 -53 29 -12 19 -26 33 -31 29 -5 -3 -18 -25 -29
-49 -17 -38 -25 -44 -60 -50 -36 -6 -67 -25 -40 -25 6 0 -4 -15 -22 -34 -46
-46 -79 -90 -94 -123 -17 -39 -90 -107 -148 -137 -43 -23 -86 -34 -86 -22 0 8
31 92 44 121 8 17 18 44 22 60 16 64 118 192 276 347 56 54 96 98 90 98 -7 0
-12 -4 -12 -10 0 -5 -12 -13 -27 -16 -16 -4 -32 -9 -36 -11 -4 -3 -33 -6 -63
-7 -35 -2 -59 -8 -65 -17 -5 -8 -9 -11 -9 -6 0 4 -11 0 -25 -9 -16 -10 -34
-14 -50 -10 -14 4 -25 2 -25 -4 0 -5 -5 -10 -11 -10 -7 0 -20 -10 -30 -22 -11
-12 -19 -16 -19 -8 0 9 -4 9 -12 2 -7 -5 -39 -15 -70 -21 -48 -10 -61 -10 -87
3 -28 15 -31 15 -41 -3 -15 -29 -12 -38 4 -15 11 14 14 15 14 4 -2 -37 6 -50
62 -97 32 -28 56 -53 53 -57 -3 -3 0 -12 7 -21 21 -25 -1 -17 -26 10 -20 21
-23 22 -27 7 -4 -14 -5 -14 -6 3 -1 13 -4 16 -9 8 -5 -8 -12 -7 -27 4 -16 13
-17 15 -3 10 10 -4 18 -4 18 -2 0 7 -39 45 -46 45 -3 0 -12 7 -21 15 -8 8 -19
13 -24 10 -5 -4 -9 0 -10 7 0 8 -3 7 -7 -3 -6 -14 -9 -15 -20 -3 -8 9 -9 14
-2 14 6 0 9 4 5 9 -3 6 -14 8 -25 6 -11 -2 -20 2 -20 8 0 7 -4 6 -10 -3 -8
-13 -10 -13 -10 2 0 10 -11 20 -26 24 -16 4 -23 11 -20 21 3 8 2 11 -4 8 -14
-8 -91 28 -86 41 3 7 -3 10 -15 7 -18 -5 -17 -7 6 -35 14 -16 28 -42 32 -56 9
-40 90 -248 125 -322 33 -70 48 -69 25 2 -8 24 -18 58 -22 75 -6 29 -4 32 11
26 13 -5 16 -3 11 10 -3 9 -2 17 3 17 14 0 70 -61 65 -70 -3 -4 2 -11 11 -14
12 -5 15 -15 11 -44 -3 -20 -3 -29 -1 -19 7 22 10 21 34 -3 11 -11 16 -20 10
-20 -5 0 -10 -7 -10 -15 0 -8 6 -15 14 -15 16 0 26 -21 26 -55 0 -13 3 -31 6
-39 6 -15 8 -15 21 1 10 13 13 14 10 3 -6 -21 11 -50 28 -50 8 0 15 -7 15 -15
0 -8 5 -15 10 -15 6 0 10 -8 10 -17 0 -15 2 -16 10 -3 6 9 10 10 10 3 0 -7 -8
-17 -17 -22 -14 -8 -15 -10 -3 -11 13 0 13 -1 0 -10 -11 -7 -7 -10 18 -10 22
0 32 -5 32 -15 0 -9 -9 -15 -25 -15 -30 0 -32 -11 -5 -28 17 -10 20 -10 20 3
0 8 5 15 10 15 18 0 11 -16 -21 -50 l-32 -33 32 5 c17 2 31 1 31 -4 0 -4 -4
-8 -10 -8 -5 0 -7 -7 -4 -15 4 -8 13 -15 20 -15 8 0 19 -11 24 -25 5 -14 21
-30 35 -37 14 -6 24 -16 22 -22 -7 -19 -57 -8 -127 29 -38 19 -77 35 -87 35
-18 0 -46 15 -206 109 -48 28 -97 51 -109 51 -11 0 -66 -22 -122 -49 -131 -63
-144 -67 -153 -45 -8 21 35 135 193 504 30 71 32 180 3 180 -5 0 -15 -13 -24
-30 -17 -34 -86 -73 -167 -94 -125 -34 -238 -69 -303 -96 -38 -15 -106 -43
-150 -60 -44 -18 -116 -49 -160 -69 -44 -21 -141 -57 -215 -80 -133 -41 -235
-75 -336 -111 -28 -10 -93 -39 -145 -64 -73 -36 -108 -48 -158 -52 -68 -5
-121 -28 -122 -54 0 -13 -2 -12 -12 2 -10 15 -13 15 -39 -3 l-28 -20 0 -1215
0 -1214 2890 0 2890 0 5 23 c3 12 4 519 3 1127 l-3 1105 -140 57 c-120 49
-284 124 -349 160 -11 6 -70 35 -130 65 -166 82 -164 80 -245 163 -42 42 -115
111 -163 153 -69 62 -98 97 -144 175 -32 53 -63 100 -70 104 -17 11 -83 104
-112 158 -37 70 -105 133 -165 155 -28 10 -58 22 -64 28 -7 5 -42 12 -77 14
-64 6 -65 5 -72 -21z m-2041 -1450 c50 -31 102 -100 92 -124 -4 -9 -8 -26 -9
-37 -6 -70 -20 -106 -47 -120 -31 -17 -75 -20 -83 -6 -3 5 -14 7 -24 5 -22 -6
-102 61 -102 87 0 10 -7 19 -15 19 -11 0 -13 12 -9 58 7 76 29 112 79 128 58
17 76 16 118 -10z"/>
</g>
</svg>
